<?xml version="1.0" encoding="UTF-8"?>
<svg id="Capa_1" xmlns="http://www.w3.org/2000/svg" version="1.1">
  <!-- Generator: Adobe Illustrator 29.3.1, SVG Export Plug-In . SVG Version: 2.1.0 Build 151)  -->
  <defs>
    <style>
      .st0 {
        fill: #3c3c3b;
      }

      .st1 {
        stroke: #fff;
      }

      .st1, .st2, .st3 {
        fill: #fff;
      }

      .st1, .st3 {
        stroke-miterlimit: 10;
        stroke-width: 2.9px;
      }

      .st3 {
        stroke: #3aaa35;
      }
    </style>
  </defs>
  <path class="st2" d="M49.3,58.2v.9h-12l-16.3-18.5h-10.5v18.5H0V3.2h26.5c6.3,0,11.1,2,14.8,5.4,3.4,3.7,5.4,8,5.4,13.1s-1.1,8-3.4,11.1-5.7,5.4-10.8,6.3l16.8,19.1h0ZM26.5,12.8H10.5v18h16c3.1,0,5.4-.9,7.1-2.6,1.7-1.7,2.6-4,2.6-6.3s-.9-4.6-2.6-6.3c-1.7-2-4-2.9-7.1-2.9"/>
  <path class="st2" d="M75,24.8c3.7-4,8.5-6,14.8-6s11.1,2,14.8,6c3.7,4,5.7,8.8,5.7,14.5s-2,10.8-5.7,14.5c-3.7,4-8.5,6-14.8,6s-11.1-2-14.8-6c-3.7-4-5.4-8.8-5.4-14.5-.3-5.7,1.7-10.5,5.4-14.5ZM89.8,27.7c-3.4,0-6,1.1-8,3.4-2,2.3-2.9,5.1-2.9,8.3s.9,6,2.9,8.3,4.6,3.4,8,3.4,6-1.1,8-3.4,2.9-4.8,2.9-8.3-.9-5.7-2.9-8.3c-2.3-2.3-4.8-3.4-8-3.4Z"/>
  <path class="st0" d="M8.5,63.6l29.7,37.6v-37.6h10.5v55.9h-8.5l-29.6-37.3v37.3H0v-55.9h8.5Z"/>
  <path class="st0" d="M94.1,103.2h-30.8c.3,2.6,1.4,4.6,3.7,6,2,1.4,4.8,2.3,8.3,2.3s4-.3,6-.9,3.7-1.4,4.6-2.6l6.3,6.3c-2,2-4.6,3.7-7.7,4.8-3.1,1.1-6.3,1.7-9.4,1.7-6.8,0-12-2-16-5.7s-5.7-8.8-5.7-15.4,2-11.1,5.7-14.8c3.7-3.7,8.8-5.7,15.1-5.7s12,2,15.7,6.3,5.1,9.7,4.3,17.7M63.6,95.2h21.1c-.3-2.6-1.4-4.3-3.1-5.7-1.7-1.4-4.3-2-7.1-2s-5.1.6-7.1,2c-1.7,1.1-3.1,3.1-3.7,5.7"/>
  <path class="st0" d="M129.7,81.3l4.3-5.4,7.1,5.4-4.8,5.7c3.1,3.7,4.6,7.4,4.6,11.7,0,6.8-3.1,11.7-9.7,14.8,6.6,2.3,9.7,6.6,9.7,12.8s-1.1,6.6-3.1,9.1c-2.3,2.6-4.8,4.6-8,5.7-3.1,1.1-6.6,1.7-10.3,1.7-6.8,0-12-1.7-16-4.8-3.7-3.1-5.7-7.7-5.4-13.4h9.7c-.3,2.6.9,4.6,3.1,6.3,2.3,1.4,5.1,2.3,8.3,2.6,2.9,0,5.7-.6,8-2,2.3-1.1,3.4-3.1,3.4-5.4s-.9-4.3-2.9-5.7c-2-1.4-4.6-2-8.3-2-6.6,0-11.7-1.7-15.7-5.4-4-3.4-6-8.3-6-14.5s2-11.1,6.3-14.5,9.4-5.1,15.1-5.1,8.3.9,10.6,2.6M119.7,87.8c-3.4,0-6.3.9-8.5,2.9-2.3,2-3.4,4.6-3.4,8s1.1,6,3.4,8,5.1,2.9,8.3,2.9,6-.9,8.3-2.9,3.4-4.6,3.4-8-1.1-6-3.4-8c-2-2-4.8-2.9-8-2.9h0Z"/>
  <path class="st0" d="M146.8,80.1h9.1l.9,4.6c1.4-2.3,2.9-3.7,4.8-4.6,1.7-.9,4-1.1,6.3-1.1,4.3,0,7.7,1.1,10.3,3.7l-4.3,8.5c-2-1.7-4.3-2.6-7.1-2.6s-5.1.9-7.1,2.6-2.9,4.3-2.9,7.4v20.8h-9.7v-39.3s-.3,0-.3,0Z"/>
  <path class="st0" d="M181.9,85.3c3.7-4,8.5-6,14.8-6s11.1,2,14.8,6,5.7,8.8,5.7,14.5-2,10.8-5.7,14.5c-3.7,4-8.5,6-14.8,6s-11.1-2-14.8-6-5.4-8.8-5.4-14.5,1.7-10.8,5.4-14.5ZM196.7,88.1c-3.4,0-6,1.1-8,3.4s-2.9,5.1-2.9,8.3.9,6,2.9,8.3,4.6,3.4,8,3.4,6-1.1,8-3.4,2.9-4.8,2.9-8.3-.9-5.7-2.9-8.3c-2.3-2.3-4.8-3.4-8-3.4Z"/>

  <path class="st2" d="M49.3,58.2v.9h-12l-16.3-18.5h-10.5v18.5H0V3.2h26.5c6.3,0,11.1,2,14.8,5.4,3.4,3.7,5.4,8,5.4,13.1s-1.1,8-3.4,11.1-5.7,5.4-10.8,6.3l16.8,19.1h0ZM26.5,12.8H10.5v18h16c3.1,0,5.4-.9,7.1-2.6,1.7-1.7,2.6-4,2.6-6.3s-.9-4.6-2.6-6.3c-1.7-2-4-2.9-7.1-2.9"/>
  <path class="st2" d="M53.9,21.2h10.3v37.9h-10.3s0-37.9,0-37.9ZM57.3,3.2l-3.4,11.4v.6h8l6-11.4v-.3h-10.5v-.3h0Z"/>
  <path class="st2" d="M75,24.8c3.7-4,8.5-6,14.8-6s11.1,2,14.8,6c3.7,4,5.7,8.8,5.7,14.5s-2,10.8-5.7,14.5c-3.7,4-8.5,6-14.8,6s-11.1-2-14.8-6c-3.7-4-5.4-8.8-5.4-14.5-.3-5.7,1.7-10.5,5.4-14.5ZM89.8,27.7c-3.4,0-6,1.1-8,3.4-2,2.3-2.9,5.1-2.9,8.3s.9,6,2.9,8.3,4.6,3.4,8,3.4,6-1.1,8-3.4,2.9-4.8,2.9-8.3-.9-5.7-2.9-8.3c-2.3-2.3-4.8-3.4-8-3.4Z"/>
  <path class="st0" d="M8.5,63.6l29.7,37.6v-37.6h10.5v55.9h-8.5l-29.6-37.3v37.3H0v-55.9h8.5Z"/>
  <path class="st0" d="M94.1,103.2h-30.8c.3,2.6,1.4,4.6,3.7,6,2,1.4,4.8,2.3,8.3,2.3s4-.3,6-.9,3.7-1.4,4.6-2.6l6.3,6.3c-2,2-4.6,3.7-7.7,4.8-3.1,1.1-6.3,1.7-9.4,1.7-6.8,0-12-2-16-5.7s-5.7-8.8-5.7-15.4,2-11.1,5.7-14.8c3.7-3.7,8.8-5.7,15.1-5.7s12,2,15.7,6.3c3.7,3.7,5.1,9.7,4.3,17.7M63.6,95.2h21.1c-.3-2.6-1.4-4.3-3.1-5.7-1.7-1.4-4.3-2-7.1-2s-5.1.6-7.1,2c-1.7,1.1-3.1,3.1-3.7,5.7"/>
  <path class="st0" d="M129.7,81.3l4.3-5.4,7.1,5.4-4.8,5.7c3.1,3.7,4.6,7.4,4.6,11.7,0,6.8-3.1,11.7-9.7,14.8,6.6,2.3,9.7,6.6,9.7,12.8s-1.1,6.6-3.1,9.1c-2.3,2.6-4.8,4.6-8,5.7-3.1,1.1-6.6,1.7-10.3,1.7-6.8,0-12-1.7-16-4.8-3.7-3.1-5.7-7.7-5.4-13.4h9.7c-.3,2.6.9,4.6,3.1,6.3,2.3,1.4,5.1,2.3,8.3,2.6,2.9,0,5.7-.6,8-2,2.3-1.1,3.4-3.1,3.4-5.4s-.9-4.3-2.9-5.7c-2-1.4-4.6-2-8.3-2-6.6,0-11.7-1.7-15.7-5.4-4-3.4-6-8.3-6-14.5s2-11.1,6.3-14.5,9.4-5.1,15.1-5.1,8.3.9,10.6,2.6M119.7,87.8c-3.4,0-6.3.9-8.5,2.9-2.3,2-3.4,4.6-3.4,8s1.1,6,3.4,8,5.1,2.9,8.3,2.9,6-.9,8.3-2.9,3.4-4.6,3.4-8-1.1-6-3.4-8c-2-2-4.8-2.9-8-2.9h0Z"/>
  <path class="st0" d="M146.8,80.1h9.1l.9,4.6c1.4-2.3,2.9-3.7,4.8-4.6,1.7-.9,4-1.1,6.3-1.1,4.3,0,7.7,1.1,10.3,3.7l-4.3,8.5c-2-1.7-4.3-2.6-7.1-2.6s-5.1.9-7.1,2.6-2.9,4.3-2.9,7.4v20.8h-9.7v-39.3s-.3,0-.3,0Z"/>
  <path class="st0" d="M181.9,85.3c3.7-4,8.5-6,14.8-6s11.1,2,14.8,6,5.7,8.8,5.7,14.5-2,10.8-5.7,14.5c-3.7,4-8.5,6-14.8,6s-11.1-2-14.8-6-5.4-8.8-5.4-14.5,1.7-10.8,5.4-14.5ZM196.7,88.1c-3.4,0-6,1.1-8,3.4s-2.9,5.1-2.9,8.3.9,6,2.9,8.3,4.6,3.4,8,3.4,6-1.1,8-3.4,2.9-4.8,2.9-8.3-.9-5.7-2.9-8.3c-2.3-2.3-4.8-3.4-8-3.4Z"/>
</svg>