<?xml version="1.0" encoding="UTF-8"?>
<svg id="Layer_2" data-name="Layer 2" xmlns="http://www.w3.org/2000/svg" viewBox="0 0 555.92 88.33">
  <defs>
    <style>
      .cls-1 {
        fill: #c9689a;
      }
    </style>
  </defs>
  <path class="cls-1" d="m40.44,58.65c13.1-18.3,34.8-64.4,24.8-8-4.3,33.3-.2,30.9,18.8,6.7.7-.9,2.2-1.1,2.8-2.1,2.1-3.9,9.6-5.9,9.1.6,3.8-.8,7.3-2.3,10.9-3,2.4-2.9,5.9.3,4.3,3.4,9.3-5.6,8.6,4.7,12.8,3.8,3.2-2.1,5.6-5,8.9-6.9,1.8-.7.3-2.9.5-4.3,1.5-4.6,6-1.2,2.6,3.5,1.6,2.6-.6,6.1-.5,9.1.1,0,.2.1.2.1,4.8-3.3,9.6-18.5,16.6-12,.6.9.7,1.9.1,2.6-1.5,2-4.1-1.3-5.2,1.3-2,2.6-4.3,10.1,1.4,8.7,7.8-.8,11.3-15.6,18.2-11,.4.4.7.4,1.1-.1.9-1.2,3.1-2,3.6,0-1.6,19.8,4.5,3.6,9.1,6.1,1.2,5.1-14.7,12.5-12.5-2.2-2.6,2.4-11.6,15.6-13.2,6.7-4.3,3.3-12.3,5.2-13.4-2.1-5.4,7.8-10.5,7-9.7-3-14.9,15.2-10.2-1.7-18.3,1.8-5.1,4-7.8,4.8-7.3-2.9-3.6,2.2-8.4,1.8-11.6,4.1-3.5,7.3-9,6.8-8.8-1.8-30.1,50.4-30.9,5.3-23.7-25.4-37.7,64.9-21.9,7.5-26.1-25.3-13.1,17.8-20.3,39.5-27.1,60.3-2.2,3.6-2.9,23.1-7.8,20.8-2.5-2.3.3-6.8.4-9.8,2.2-9.8,5.7-19.3,8.8-28.8C12.94,41.55,27.74-2.85,38.84,5.75c4.3,16.8-.6,35.4,1.1,52.8.2,0,.3,0,.5.1Zm123.9-4c-1.5.1-4.2,3.4-4.4,5.2,1.5-1.9,3.4-3.3,4.4-5.2h0Zm-74.2,2.5v3.1c1.8-1.9,1.8-2.1,0-3.1Z"/>
  <path class="cls-1" d="m249.04,22.85c13.1,1.4,28,3.4,36.6,14.6.1-.1.2-.1.4-.2,1.5-8.8,4.5-17.4,4.7-26.4,0-1.4.4-1.8,2-2.1,3.2-.2,2.3,4.1,2.1,6.1-1.4,9.8-5,19.9-4.4,29.8,4.3,10.8,2,23.3-3.8,33.2-.8,1.3-2.7,3.5-3.8,1.3-3.5-12,3.2-26.1,1.8-38.1-4.7-6.3-11.1-10-18.6-11.8-18.3-2.5-33.1-4.7-6.1-15,18-6.7,70.2-27.6,78.7-1.4-.5,1.6-1.1,3.6-2.2,5-.8.3-1.7.4-1.6-.8,6.4-27.9-74.4-1.4-85.7,5.5-.1.1,0,.2-.1.3h0Zm38.4,45.3c1.5-2.5,2.8-13.1,1.4-15.3-.5,5.2-1,10.2-1.4,15.3Z"/>
  <path class="cls-1" d="m541.54,52.05c-5.7,4.3-18.5,25.2-15.2,5.1-4.5,5.1-12.2,13.6-14,1.6-4.4,2.7-7.2-3.7-10.9-.6-3.5,2.8-13.8,15.6-11,3.1-3.9,4.6-10.3,3.6-9.7-3.2-7.8,10.7-15.2,9-10.8-4.6.7-2.7,5.1-2,4.4.9-.5,2.6-1.4,4.8-1.6,7.4,3-2.4,5.1-5.3,7.9-7.9,5.1-2.8.7,9.7,5.6,6.9,2.1-2.4,5.5-4.4,6.3-7.6.8-2.8,4.4-1.6,3.9,1-.4,1.8-.8,3.4-1.2,5.2,12-11.4,11.8,1.1,17.2-4.1.1-7.2,2.2-14.1,4.1-20.9-3.6-.7-13,2.8-14.7-.4-.5-1.8,1.6-2.2,3-2.2,3.2-.7,11,1.5,12.6-1.2,1.7-3.1,1.2-12.5,6-11.4,2.5,2.1-2,9.4-2.3,12.5,12.2-1,11,2.6,12.9-10.2.6-2.8,4.9-1.5,4.1,1.1-2.9,12.6-5.8,25.2-8.6,37.8.1,0,.1.1.2.1,5.1-5.4,15.1-19,16.3-3.4.2,1.5.6,1.7,1.9.8,2.3-1.2,4-4.8,6.9-4-.1-.5-.4-1.5.5-1.3,2.5,2.2-3.7,5.3-4.8,7.2-6.5,4.6-8.5-2.6-9-7.7h0Zm-10-18.2c-2.3.2-10.6-1-11.4,1.1-1.3,8.4-4.6,16.8-3.7,25.4.1,2.3,2,.6,2.9-.1,11.2-9.8,9.1-12.7,12.2-26.4h0Z"/>
  <path class="cls-1" d="m417.34,86.75c-31.2-2.1-14.9-50.6-2.2-65.7,8.8-10.5,22.5-20.5,36.8-18.2,3.6.8,9.3,5.7,6.9,9.4-4,2-7.6-6.5-14.3-4.5-35.4,2.3-62,91.2-15.5,72,11.2-5.1,20.5-12.5,27.8-22.4,3.1-3.5,5-9.3,9.3-11.2-3.4,17.3-30.3,40.1-48.8,40.6h0Z"/>
  <path class="cls-1" d="m360.54,58.45c-4.5,3.2-7.3-3.4-11-.5-5.1,4.2-14.5,16.4-10.8,1-4.5,1.9-7.6-4.6-11.4-.2-9.8,9.9-12.5,12.3-8.6-3.8-3.8,2.1-8.3,2.5-12,4.2-1.1,2-2.3,4-4.4,5-6.4,2-6-12.4,2-12.8,2.2-.5,3.7,2.1,3.4,4.3,3.8-.9,7.2-2.1,10.9-2.9,6-4.6,4.5,3,3.3,6.5,12.5-11,9.2-.7,17-3.6,1.6-1.1,1-5,3.8-4.3,3,1.3.4,5.4.2,7.8,12.8-11,9.3-.5,17-3.6,1.1-1.7,1.2-4.1,2.2-5.9.8-2.4,4.9-3.8,6.1-1,2.2,6-4.1,6.2-3.5,9.2.4,1.5.1,5.3,2.6,3.5,2.6-2.1,5.6-4.7,6.3-8.1-.2-3.5,5.6-3.7,5.1-.2-.5,1.7-1,3,.8,4.3,2.3-1.1,4.9-6.1,7.6-4.4.8,2.8-4,4.4-5.5,6.4-.4.4-.6.7-.4,1.3,2.2,5.7-.9,10.5-5,12.9-12.7,4.3-4.2-10,.5-13.7-.6-.8-1.2-1.5-1.8-2.3-3.7,6.6-12.5,11.9-14.4.9h0Zm18.4,4c-2.9,2.1-6.3,5.4-6.5,9.1,4.6,0,7.3-4.6,6.5-9.1Zm-77-2.3l.2.1c.9-1.2,2.4-2.6,0-3-.1,1-.2,2-.2,2.9h0Z"/>
  <path class="cls-1" d="m206.74,48.65c5.8-8.6,6.8-22.9,14.4-29.5,3.6,2.3-3.6,12.4-4.2,16.1-3.7,9.2-5.5,19-6.7,28.8-1.2,4.9.6,15.2-2,18.7-4.7-5.8-.9-21.4-1-28.8-13.2,22.8-24.7,4.7-8.8-6.4,2.8-1.6,5.7-1.5,8.3,1.1Zm-11.4,13.3c17.4-10.7,1.5-16.7,0,0h0Z"/>
  <path class="cls-1" d="m212.84,56.95c-.5-4.3,4.3-14.3,8.1-7.6.7,2.5-.4,5.2-2.8,6.5-.7.4-1.1.8-.9,1.7.2,10.1,7.3-1.2,9.9-4.2,8.8-4.5-11.5,25.4-14.3,3.6h0Z"/>
  <path class="cls-1" d="m96.34,43.95c1.4-2.8,3.2-5.5,4.7-8.3,1-1.4,2.9,1.1,4.2,1.5-1.7,2.8-3.3,5.6-4.9,8.4-1.3.8-2.7-1.1-4-1.6Z"/>
</svg>