<?xml version="1.0" encoding="utf-8"?>
<!-- Generator: Adobe Illustrator 27.5.0, SVG Export Plug-In . SVG Version: 6.00 Build 0)  -->
<svg version="1.1" id="Layer_2_00000047040181869174872310000016123809204011998648_"
	 xmlns="http://www.w3.org/2000/svg" xmlns:xlink="http://www.w3.org/1999/xlink" x="0px" y="0px" viewBox="0 0 555.9 88.3"
	 style="enable-background:new 0 0 555.9 88.3;" xml:space="preserve">
<style type="text/css">
	.st0{fill:#FFF0F0;}
</style>
<path class="st0" d="M40.4,58.7c13.1-18.3,34.8-64.4,24.8-8C60.9,83.9,65,81.6,84,57.4c0.7-0.9,2.2-1.1,2.8-2.1
	c2.1-3.9,9.6-5.9,9.1,0.6c3.8-0.8,7.3-2.3,10.9-3c2.4-2.9,5.9,0.3,4.3,3.4c9.3-5.6,8.6,4.7,12.8,3.8c3.2-2.1,5.6-5,8.9-6.9
	c1.8-0.7,0.3-2.9,0.5-4.3c1.5-4.6,6-1.2,2.6,3.5c1.6,2.6-0.6,6.1-0.5,9.1c0.1,0,0.2,0.1,0.2,0.1c4.8-3.3,9.6-18.5,16.6-12
	c0.6,0.9,0.7,1.9,0.1,2.6c-1.5,2-4.1-1.3-5.2,1.3c-2,2.6-4.3,10.1,1.4,8.7c7.8-0.8,11.3-15.6,18.2-11c0.4,0.4,0.7,0.4,1.1-0.1
	c0.9-1.2,3.1-2,3.6,0c-1.6,19.8,4.5,3.6,9.1,6.1c1.2,5.1-14.7,12.5-12.5-2.2c-2.6,2.4-11.6,15.6-13.2,6.7
	c-4.3,3.3-12.3,5.2-13.4-2.1c-5.4,7.8-10.5,7-9.7-3c-14.9,15.2-10.2-1.7-18.3,1.8c-5.1,4-7.8,4.8-7.3-2.9c-3.6,2.2-8.4,1.8-11.6,4.1
	c-3.5,7.3-9,6.8-8.8-1.8C55.6,108.2,54.8,63,62,32.3C24.3,97.2,40.1,39.8,35.9,7C22.8,24.8,15.6,46.5,8.8,67.3
	C6.6,70.9,5.9,90.4,1,88.1c-2.5-2.3,0.3-6.8,0.4-9.8c2.2-9.8,5.7-19.3,8.8-28.8c2.7-8,17.5-52.4,28.6-43.8
	c4.3,16.8-0.6,35.4,1.1,52.8C40.1,58.5,40.2,58.5,40.4,58.7z M164.3,54.7c-1.5,0.1-4.2,3.4-4.4,5.2C161.4,58,163.3,56.6,164.3,54.7
	L164.3,54.7z M90.1,57.2v3.1C91.9,58.3,91.9,58.2,90.1,57.2z"/>
<path class="st0" d="M249,22.9c13.1,1.4,28,3.4,36.6,14.6c0.1-0.1,0.2-0.1,0.4-0.2c1.5-8.8,4.5-17.4,4.7-26.4c0-1.4,0.4-1.8,2-2.1
	c3.2-0.2,2.3,4.1,2.1,6.1c-1.4,9.8-5,19.9-4.4,29.8c4.3,10.8,2,23.3-3.8,33.2c-0.8,1.3-2.7,3.5-3.8,1.3c-3.5-12,3.2-26.1,1.8-38.1
	c-4.7-6.3-11.1-10-18.6-11.8c-18.3-2.5-33.1-4.7-6.1-15c18-6.7,70.2-27.6,78.7-1.4c-0.5,1.6-1.1,3.6-2.2,5c-0.8,0.3-1.7,0.4-1.6-0.8
	c6.4-27.9-74.4-1.4-85.7,5.5C249,22.7,249.1,22.8,249,22.9L249,22.9L249,22.9z M287.4,68.2c1.5-2.5,2.8-13.1,1.4-15.3
	C288.3,58.1,287.8,63.1,287.4,68.2z"/>
<path class="st0" d="M541.5,52c-5.7,4.3-18.5,25.2-15.2,5.1c-4.5,5.1-12.2,13.6-14,1.6c-4.4,2.7-7.2-3.7-10.9-0.6
	c-3.5,2.8-13.8,15.6-11,3.1c-3.9,4.6-10.3,3.6-9.7-3.2c-7.8,10.7-15.2,9-10.8-4.6c0.7-2.7,5.1-2,4.4,0.9c-0.5,2.6-1.4,4.8-1.6,7.4
	c3-2.4,5.1-5.3,7.9-7.9c5.1-2.8,0.7,9.7,5.6,6.9c2.1-2.4,5.5-4.4,6.3-7.6c0.8-2.8,4.4-1.6,3.9,1c-0.4,1.8-0.8,3.4-1.2,5.2
	c12-11.4,11.8,1.1,17.2-4.1c0.1-7.2,2.2-14.1,4.1-20.9c-3.6-0.7-13,2.8-14.7-0.4c-0.5-1.8,1.6-2.2,3-2.2c3.2-0.7,11,1.5,12.6-1.2
	c1.7-3.1,1.2-12.5,6-11.4c2.5,2.1-2,9.4-2.3,12.5c12.2-1,11,2.6,12.9-10.2c0.6-2.8,4.9-1.5,4.1,1.1c-2.9,12.6-5.8,25.2-8.6,37.8
	c0.1,0,0.1,0.1,0.2,0.1c5.1-5.4,15.1-19,16.3-3.4c0.2,1.5,0.6,1.7,1.9,0.8c2.3-1.2,4-4.8,6.9-4c-0.1-0.5-0.4-1.5,0.5-1.3
	c2.5,2.2-3.7,5.3-4.8,7.2C544,64.4,542,57.2,541.5,52C541.5,52.1,541.5,52.1,541.5,52z M531.5,33.8c-2.3,0.2-10.6-1-11.4,1.1
	c-1.3,8.4-4.6,16.8-3.7,25.4c0.1,2.3,2,0.6,2.9-0.1C530.5,50.5,528.4,47.5,531.5,33.8L531.5,33.8z"/>
<path class="st0" d="M417.3,86.8c-31.2-2.1-14.9-50.6-2.2-65.7c8.8-10.5,22.5-20.5,36.8-18.2c3.6,0.8,9.3,5.7,6.9,9.4
	c-4,2-7.6-6.5-14.3-4.5c-35.4,2.3-62,91.2-15.5,72c11.2-5.1,20.5-12.5,27.8-22.4c3.1-3.5,5-9.3,9.3-11.2
	C462.7,63.4,435.8,86.2,417.3,86.8L417.3,86.8L417.3,86.8z"/>
<path class="st0" d="M360.5,58.5c-4.5,3.2-7.3-3.4-11-0.5c-5.1,4.2-14.5,16.4-10.8,1c-4.5,1.9-7.6-4.6-11.4-0.2
	c-9.8,9.9-12.5,12.3-8.6-3.8c-3.8,2.1-8.3,2.5-12,4.2c-1.1,2-2.3,4-4.4,5c-6.4,2-6-12.4,2-12.8c2.2-0.5,3.7,2.1,3.4,4.3
	c3.8-0.9,7.2-2.1,10.9-2.9c6-4.6,4.5,3,3.3,6.5c12.5-11,9.2-0.7,17-3.6c1.6-1.1,1-5,3.8-4.3c3,1.3,0.4,5.4,0.2,7.8
	c12.8-11,9.3-0.5,17-3.6c1.1-1.7,1.2-4.1,2.2-5.9c0.8-2.4,4.9-3.8,6.1-1c2.2,6-4.1,6.2-3.5,9.2c0.4,1.5,0.1,5.3,2.6,3.5
	c2.6-2.1,5.6-4.7,6.3-8.1c-0.2-3.5,5.6-3.7,5.1-0.2c-0.5,1.7-1,3,0.8,4.3c2.3-1.1,4.9-6.1,7.6-4.4c0.8,2.8-4,4.4-5.5,6.4
	c-0.4,0.4-0.6,0.7-0.4,1.3c2.2,5.7-0.9,10.5-5,12.9c-12.7,4.3-4.2-10,0.5-13.7c-0.6-0.8-1.2-1.5-1.8-2.3
	C371.2,64.1,362.4,69.4,360.5,58.5L360.5,58.5L360.5,58.5z M378.9,62.5c-2.9,2.1-6.3,5.4-6.5,9.1C377,71.6,379.7,67,378.9,62.5z
	 M301.9,60.2l0.2,0.1c0.9-1.2,2.4-2.6,0-3C302,58.2,301.9,59.2,301.9,60.2L301.9,60.2z"/>
<path class="st0" d="M206.7,48.7c5.8-8.6,6.8-22.9,14.4-29.5c3.6,2.3-3.6,12.4-4.2,16.1c-3.7,9.2-5.5,19-6.7,28.8
	c-1.2,4.9,0.6,15.2-2,18.7c-4.7-5.8-0.9-21.4-1-28.8c-13.2,22.8-24.7,4.7-8.8-6.4C201.2,46,204.1,46,206.7,48.7z M195.3,62
	C212.7,51.2,196.8,45.2,195.3,62L195.3,62z"/>
<path class="st0" d="M212.8,57c-0.5-4.3,4.3-14.3,8.1-7.6c0.7,2.5-0.4,5.2-2.8,6.5c-0.7,0.4-1.1,0.8-0.9,1.7
	c0.2,10.1,7.3-1.2,9.9-4.2C235.9,48.9,215.6,78.8,212.8,57L212.8,57z"/>
<path class="st0" d="M96.3,44c1.4-2.8,3.2-5.5,4.7-8.3c1-1.4,2.9,1.1,4.2,1.5c-1.7,2.8-3.3,5.6-4.9,8.4C99,46.4,97.6,44.5,96.3,44z"
	/>
</svg>
