<?xml version="1.0" encoding="UTF-8"?>
<svg id="Layer_2" data-name="Layer 2" xmlns="http://www.w3.org/2000/svg" viewBox="0 0 86.84 83.69">
  <defs>
    <style>
      .cls-1 {
        fill: #c9689a;
      }
    </style>
  </defs>
  <path class="cls-1" d="m85.74,53.1c-30.1,50.4-30.9,5.3-23.7-25.4-37.7,64.9-21.9,7.5-26.1-25.3C22.84,20.2,15.64,41.9,8.84,62.7c-2.2,3.6-2.9,23.1-7.8,20.8-2.5-2.3.3-6.8.4-9.8,2.2-9.8,5.7-19.3,8.8-28.8C12.94,36.9,27.74-7.5,38.84,1.1c4.3,16.8-.6,35.4,1.1,52.8.2,0,.3,0,.5.1,13.1-18.3,34.8-64.4,24.8-8-4.3,33.3-.2,30.9,18.8,6.7.7-.9,2.2-1.1,2.8-2.1"/>
</svg>