<?xml version="1.0" standalone="no"?>
<!DOCTYPE svg PUBLIC "-//W3C//DTD SVG 20010904//EN"
 "http://www.w3.org/TR/2001/REC-SVG-20010904/DTD/svg10.dtd">
<svg version="1.0" xmlns="http://www.w3.org/2000/svg"
 width="696.000000pt" height="696.000000pt" viewBox="0 0 696.000000 696.000000"
 preserveAspectRatio="xMidYMid meet">
<metadata>
Created by potrace 1.14, written by Peter Selinger 2001-2017
</metadata>
<g transform="translate(0.000000,696.000000) scale(0.100000,-0.100000)"
fill="#000000" stroke="none">
<path d="M2810 6827 c-3 -3 -21 -9 -40 -12 -45 -8 -137 -55 -208 -106 -52 -38
-188 -169 -252 -245 -81 -94 -225 -306 -330 -484 -119 -204 -122 -209 -195
-355 -38 -77 -73 -141 -77 -143 -5 -2 -8 -10 -8 -18 0 -8 -16 -44 -35 -80 -19
-35 -35 -70 -35 -77 0 -7 -6 -19 -12 -25 -7 -7 -13 -16 -14 -20 0 -4 -7 -23
-16 -42 -9 -19 -37 -82 -63 -140 -26 -58 -53 -118 -60 -135 -8 -16 -39 -91
-70 -165 -31 -74 -62 -148 -69 -165 -15 -33 -150 -377 -152 -385 -1 -6 -13
-38 -24 -65 -16 -40 -120 -323 -120 -328 0 -3 -5 -18 -11 -34 -6 -15 -10 -29
-10 -30 0 -2 -7 -20 -16 -40 -22 -55 -143 -404 -149 -432 -3 -13 -12 -37 -20
-52 -8 -16 -14 -30 -13 -31 2 -3 -26 -96 -38 -128 -3 -8 -7 -19 -9 -25 -1 -5
-19 -57 -39 -115 -20 -58 -38 -116 -41 -129 -3 -13 -12 -37 -20 -52 -8 -16
-14 -31 -14 -34 1 -3 -42 -137 -95 -297 -54 -160 -98 -296 -100 -302 -1 -6 -5
-18 -8 -26 -15 -38 -168 -538 -192 -630 -2 -8 -16 -58 -30 -110 -15 -52 -28
-103 -30 -113 -2 -10 -7 -27 -10 -37 -3 -10 -7 -27 -9 -37 -2 -10 -16 -65 -30
-123 -14 -58 -28 -123 -31 -145 -6 -40 -21 -122 -30 -160 -2 -11 -21 -78 -41
-150 -31 -110 -36 -146 -37 -235 -1 -115 11 -157 58 -204 63 -64 155 -39 220
59 33 51 95 185 95 208 0 7 3 17 7 21 4 3 8 12 9 19 2 7 17 66 34 132 17 66
33 129 35 140 3 11 9 40 15 65 5 25 12 56 14 70 4 22 37 201 51 270 2 13 7 42
11 64 3 22 7 43 9 46 2 3 6 26 10 50 3 25 8 52 10 60 2 8 7 29 9 45 6 30 37
167 55 240 9 37 22 73 56 150 7 17 47 136 89 265 43 129 80 242 83 250 3 8 7
20 9 27 4 21 26 88 33 98 3 6 6 15 7 20 1 6 40 123 87 260 126 368 157 458
166 480 16 36 71 191 71 199 0 4 6 22 14 39 7 18 28 73 46 122 18 50 36 95 40
100 5 6 11 27 15 48 4 20 11 37 16 37 5 0 9 7 9 16 0 8 18 61 41 117 22 56 47
120 56 142 9 22 21 54 28 70 7 17 23 55 35 85 27 68 49 119 60 145 5 11 25 58
45 105 20 47 44 101 52 120 8 19 21 49 28 65 7 17 29 66 50 110 20 44 53 116
73 160 61 134 264 539 280 558 8 9 12 17 9 17 -6 0 197 361 276 490 26 41 58
96 73 123 15 26 31 47 36 47 4 0 8 9 8 19 0 11 4 21 8 23 4 2 43 57 87 123
141 213 244 355 246 338 10 -60 18 -146 34 -338 33 -394 36 -1049 9 -1795 -2
-69 -6 -186 -9 -260 -2 -74 -8 -218 -11 -320 -10 -272 -10 -930 -1 -1040 5
-52 10 -113 12 -135 1 -22 8 -71 15 -110 7 -38 14 -79 15 -90 2 -11 4 -20 5
-20 1 0 3 -10 6 -22 15 -83 98 -223 131 -223 6 0 13 -5 15 -11 7 -22 111 -14
170 14 32 14 63 30 70 36 7 6 39 31 70 56 79 63 133 118 278 285 12 14 43 52
68 85 25 33 49 62 52 65 8 7 212 288 236 325 10 17 23 35 27 40 5 6 53 78 107
160 54 83 102 155 107 161 4 5 13 19 20 30 6 10 72 116 146 234 73 118 151
244 173 280 21 36 42 67 47 68 4 2 7 7 7 12 0 12 133 234 142 238 5 2 8 8 8
13 0 16 123 219 132 219 5 0 7 -4 4 -9 -5 -7 -43 -172 -62 -266 -2 -11 -6 -31
-9 -45 -2 -14 -7 -40 -10 -59 -3 -19 -7 -37 -9 -40 -2 -3 -7 -28 -10 -55 -4
-27 -9 -52 -10 -55 -2 -3 -7 -28 -10 -55 -4 -27 -9 -53 -11 -57 -3 -3 -7 -26
-9 -50 -3 -24 -7 -53 -10 -64 -2 -11 -9 -56 -16 -100 -6 -44 -13 -91 -16 -105
-2 -14 -6 -45 -9 -70 -3 -25 -8 -57 -11 -72 -6 -32 -10 -63 -20 -149 -3 -35
-8 -75 -9 -89 -1 -14 -6 -54 -9 -90 -4 -36 -8 -81 -11 -100 -7 -59 -17 -172
-20 -225 -2 -27 -7 -104 -11 -170 -4 -66 -8 -264 -7 -440 0 -293 4 -400 18
-525 3 -25 8 -67 11 -95 3 -27 7 -57 9 -65 2 -8 7 -35 10 -60 11 -79 62 -272
94 -356 86 -222 224 -346 386 -346 72 -1 94 4 165 32 99 39 198 101 305 190
52 44 278 273 325 330 25 30 52 61 60 70 16 16 16 17 130 166 41 55 77 101 80
104 16 15 110 152 110 159 0 5 4 11 8 13 7 3 137 190 182 262 316 503 292 464
345 579 40 88 43 102 15 68 -11 -13 -20 -20 -20 -16 0 5 -8 2 -17 -6 -10 -8
-34 -23 -53 -33 -69 -37 -101 -69 -202 -199 -98 -126 -112 -143 -156 -194 -10
-12 -27 -34 -38 -48 -10 -15 -24 -32 -29 -39 -6 -6 -74 -88 -151 -182 -77 -93
-150 -181 -162 -195 -11 -13 -30 -35 -42 -49 -187 -218 -361 -395 -485 -495
-116 -94 -182 -126 -263 -131 -51 -3 -56 -1 -95 39 -57 57 -87 148 -104 317
-8 83 -8 383 1 520 16 236 29 401 42 490 3 19 7 62 10 95 2 33 6 71 9 85 2 14
6 50 10 80 3 30 8 71 11 90 2 19 6 58 9 85 3 28 7 66 10 85 3 19 7 51 9 70 3
19 12 78 21 130 21 124 24 141 29 165 2 11 7 40 10 65 3 25 8 55 10 66 5 24 6
34 35 224 11 74 23 155 26 180 3 25 7 52 10 60 2 8 6 44 10 80 3 36 7 75 9 87
7 32 22 185 31 299 3 38 8 96 11 129 12 142 6 419 -12 515 -11 58 -13 67 -45
135 -87 189 -335 8 -691 -502 -46 -67 -288 -430 -303 -455 -13 -21 -95 -152
-115 -182 -8 -12 -31 -49 -50 -80 -19 -32 -42 -68 -50 -81 -25 -40 -104 -167
-120 -194 -48 -81 -185 -299 -198 -313 -8 -10 -11 -18 -7 -18 4 0 0 -9 -10
-20 -21 -23 -40 -53 -57 -92 -7 -16 -16 -28 -20 -28 -4 0 -8 -7 -8 -15 0 -8
-4 -15 -10 -15 -5 0 -10 -6 -10 -13 0 -7 -9 -23 -20 -35 -11 -12 -20 -24 -20
-26 0 -6 -39 -69 -137 -219 -34 -53 -63 -101 -63 -106 0 -5 -7 -12 -16 -15 -8
-3 -13 -10 -10 -15 4 -5 3 -11 -1 -13 -5 -1 -35 -43 -69 -93 -34 -49 -79 -116
-100 -147 -37 -55 -65 -71 -80 -47 -4 7 -9 39 -11 73 -2 33 -6 102 -9 151 -10
134 -9 785 0 980 12 234 14 276 20 385 3 52 8 138 11 190 2 52 7 131 10 175 4
44 8 118 10 165 2 47 7 155 12 240 9 189 9 795 0 940 -4 58 -9 141 -12 185 -2
44 -7 89 -9 100 -3 11 -8 47 -11 80 -4 33 -8 71 -11 85 -2 14 -6 45 -9 70 -6
41 -17 108 -31 170 -3 14 -7 37 -9 52 -2 15 -9 44 -14 65 -9 34 -18 76 -20 95
-2 15 -48 50 -100 74 -51 25 -197 46 -211 31z"/>
</g>
</svg>
