<?xml version="1.0" encoding="utf-8"?>
<!-- Generator: Adobe Illustrator 27.5.0, SVG Export Plug-In . SVG Version: 6.00 Build 0)  -->
<svg version="1.1" id="Layer_1" xmlns="http://www.w3.org/2000/svg" xmlns:xlink="http://www.w3.org/1999/xlink" x="0px" y="0px"
	 viewBox="0 0 71 55" style="enable-background:new 0 0 71 55;" xml:space="preserve">
<g>
	<defs>
		<path id="SVGID_1_" d="M24.3,0.6c-2.9,0.1-4.8,0.6-6.6,1.3c-1.8,0.7-3.3,1.6-4.8,3.1c-1.5,1.5-2.4,3-3.1,4.8
			c-0.7,1.7-1.1,3.7-1.2,6.6c-0.1,2.9-0.2,3.8-0.1,11.2c0,7.4,0,8.3,0.2,11.2c0.1,2.9,0.6,4.8,1.3,6.6c0.7,1.8,1.6,3.3,3.1,4.8
			c1.5,1.5,3,2.4,4.8,3.1c1.7,0.7,3.7,1.1,6.6,1.2c2.9,0.1,3.8,0.2,11.2,0.1c7.4,0,8.3,0,11.2-0.2c2.9-0.1,4.8-0.6,6.6-1.3
			c1.8-0.7,3.3-1.6,4.8-3.1c1.5-1.5,2.4-3,3.1-4.8c0.7-1.7,1.1-3.7,1.2-6.6c0.1-2.9,0.2-3.8,0.1-11.2c0-7.4,0-8.3-0.2-11.2
			c-0.1-2.9-0.6-4.8-1.3-6.6c-0.7-1.8-1.6-3.3-3.1-4.8c-1.5-1.5-3-2.4-4.8-3.1c-1.7-0.7-3.7-1.1-6.6-1.2c-2.9-0.1-3.8-0.2-11.2-0.1
			C28.1,0.4,27.2,0.5,24.3,0.6 M24.6,49.6c-2.6-0.1-4.1-0.6-5-0.9c-1.3-0.5-2.2-1.1-3.1-2c-0.9-0.9-1.5-1.8-2-3.1
			c-0.4-1-0.8-2.4-0.9-5c-0.1-2.9-0.2-3.7-0.2-10.9c0-7.2,0-8.1,0.1-10.9c0.1-2.6,0.6-4.1,0.9-5c0.5-1.3,1.1-2.2,2-3.1
			c0.9-1,1.8-1.5,3.1-2c1-0.4,2.4-0.8,5-0.9c2.9-0.1,3.7-0.2,10.9-0.2c7.2,0,8.1,0,10.9,0.1c2.6,0.1,4.1,0.6,5,0.9
			c1.3,0.5,2.2,1.1,3.1,2c0.9,0.9,1.5,1.8,2,3.1c0.4,1,0.8,2.4,0.9,5c0.1,2.9,0.2,3.7,0.2,10.9c0,7.2,0,8.1-0.1,10.9
			c-0.1,2.6-0.6,4.1-0.9,5c-0.5,1.3-1.1,2.2-2,3.1c-0.9,0.9-1.8,1.5-3.1,2c-1,0.4-2.4,0.8-5,0.9c-2.9,0.1-3.7,0.2-10.9,0.2
			C28.3,49.7,27.5,49.7,24.6,49.6 M46.7,13c0,1.8,1.5,3.2,3.3,3.2c1.8,0,3.2-1.5,3.2-3.3c0-1.8-1.5-3.2-3.3-3.2S46.7,11.2,46.7,13
			 M21.6,27.5c0,7.7,6.3,13.9,13.9,13.9c7.7,0,13.9-6.3,13.9-13.9c0-7.7-6.3-13.9-13.9-13.9C27.8,13.6,21.6,19.8,21.6,27.5
			 M26.5,27.5c0-5,4-9,9-9c5,0,9,4,9,9c0,5-4,9-9,9C30.5,36.5,26.5,32.5,26.5,27.5"/>
	</defs>
	<use xlink:href="#SVGID_1_"  style="overflow:visible;fill:#FFFFFF;"/>
	<clipPath id="SVGID_00000170999966716950319510000011012637720399284373_">
		<use xlink:href="#SVGID_1_"  style="overflow:visible;"/>
	</clipPath>
</g>
</svg>
