<?xml version="1.0" encoding="UTF-8"?>
<svg id="Layer_1" data-name="Layer 1" xmlns="http://www.w3.org/2000/svg" viewBox="0 0 71 49.7">
  <defs>
    <style>
      .cls-1 {
        fill: #fff;
      }
    </style>
  </defs>
  <path class="cls-1" d="m69.52,7.76c-.82-3.05-3.22-5.46-6.28-6.28-5.54-1.48-27.74-1.48-27.74-1.48,0,0-22.2,0-27.74,1.48-3.05.82-5.46,3.22-6.28,6.28C0,13.3,0,24.85,0,24.85c0,0,0,11.55,1.48,17.09.82,3.05,3.22,5.46,6.28,6.28,5.54,1.48,27.74,1.48,27.74,1.48,0,0,22.2,0,27.74-1.48,3.05-.82,5.46-3.22,6.28-6.28,1.48-5.54,1.48-17.09,1.48-17.09,0,0,0-11.55-1.48-17.09Zm-41.12,27.74V14.2l18.45,10.65-18.45,10.65Z"/>
</svg>